<?xml version="1.0" encoding="UTF-8" standalone="no"?>
<svg
   version="1.1"
   id="svg8"
   sodipodi:docname="plain_04.svg"
   width="1024.05"
   height="1024.0603"
   inkscape:version="1.3-alpha (2a5ddc9, 2023-03-29)"
   xmlns:inkscape="http://www.inkscape.org/namespaces/inkscape"
   xmlns:sodipodi="http://sodipodi.sourceforge.net/DTD/sodipodi-0.dtd"
   xmlns="http://www.w3.org/2000/svg"
   xmlns:svg="http://www.w3.org/2000/svg">
  <sodipodi:namedview
     id="namedview8"
     pagecolor="#ffffff"
     bordercolor="#666666"
     borderopacity="1.0"
     inkscape:showpageshadow="2"
     inkscape:pageopacity="0.0"
     inkscape:pagecheckerboard="0"
     inkscape:deskcolor="#d1d1d1"
     inkscape:zoom="0.54083333"
     inkscape:cx="334.66872"
     inkscape:cy="570.41602"
     inkscape:window-width="1452"
     inkscape:window-height="773"
     inkscape:window-x="1970"
     inkscape:window-y="89"
     inkscape:window-maximized="0"
     inkscape:current-layer="svg8" />
  <defs
     id="defs1" />
  <g
     id="g8"
     transform="translate(0.025,0.025)">
    <path
       stroke="none"
       fill="#333335"
       d="M 0,0 H 1024 V 1024 H 0 V 0"
       id="path1"
       style="fill:#ffffff" />
    <path
       stroke="none"
       fill="#ffffff"
       fill-opacity="0.101961"
       d="m 257,1024 h -1 V 897 H 129 v 127 h -1 V 897 H 0 v -1 H 128 V 769 H 0 v -1 H 128 V 641 H 0 v -1 H 128 V 513 H 0 v -1 H 128 V 385 H 0 v -1 H 128 V 257 H 0 v -1 H 128 V 129 H 0 v -1 H 128 V 0 h 1 V 128 H 256 V 0 h 1 V 128 H 384 V 0 h 1 V 128 H 512 V 0 h 1 V 128 H 640 V 0 h 1 V 128 H 768 V 0 h 1 V 128 H 896 V 0 h 1 v 128 h 127 v 1 H 897 v 127 h 127 v 1 H 897 v 127 h 127 v 1 H 897 v 127 h 127 v 1 H 897 v 127 h 127 v 1 H 897 v 127 h 127 v 1 H 897 v 127 h 127 v 1 H 897 v 127 h -1 V 897 H 769 v 127 h -1 V 897 H 641 v 127 h -1 V 897 H 513 v 127 h -1 V 897 H 385 v 127 h -1 V 897 H 257 v 127 M 769,257 V 384 H 896 V 257 H 769 m -1,0 H 641 V 384 H 768 V 257 m 1,-1 H 896 V 129 H 769 v 127 m 0,256 H 896 V 385 H 769 V 512 M 768,256 V 129 H 641 v 127 h 127 m 1,512 H 896 V 641 H 769 v 127 m -1,0 V 641 H 641 v 127 h 127 m 1,1 V 896 H 896 V 769 H 769 M 896,513 H 769 V 640 H 896 V 513 m -255,0 V 640 H 768 V 513 H 641 m 0,-1 H 768 V 385 H 641 V 512 M 513,256 H 640 V 129 H 513 V 256 M 384,384 V 257 H 257 V 384 H 384 M 512,257 H 385 V 384 H 512 V 257 m 1,0 V 384 H 640 V 257 H 513 m 0,255 H 640 V 385 H 513 V 512 M 384,129 H 257 V 256 H 384 V 129 M 512,256 V 129 H 385 v 127 h 127 m 0,256 V 385 H 385 V 512 H 512 M 256,257 H 129 V 384 H 256 V 257 M 129,129 V 256 H 256 V 129 H 129 M 256,512 V 385 H 129 v 127 h 127 m 0,256 V 641 H 129 v 127 h 127 m 1,0 H 384 V 641 H 257 v 127 m -1,1 H 129 V 896 H 256 V 769 M 129,513 V 640 H 256 V 513 H 129 m 255,0 H 257 V 640 H 384 V 513 m 256,0 H 513 V 640 H 640 V 513 M 512,768 V 641 H 385 v 127 h 127 m 1,0 H 640 V 641 H 513 v 127 m 0,1 V 896 H 640 V 769 H 513 m -1,0 H 385 V 896 H 512 V 769 M 385,513 V 640 H 512 V 513 H 385 M 257,769 V 896 H 384 V 769 H 257 m 0,-257 H 384 V 385 H 257 V 512 M 768,769 H 641 V 896 H 768 V 769"
       id="path2"
       style="fill:#272b30" />
    <path
       stroke="none"
       fill="#ffffff"
       d="M 2,2 V 1022 H 1022 V 2 H 2 M 0,0 H 1024 V 1024 H 0 V 0"
       id="path3"
       style="fill:#272b30" />
    <path
       stroke="none"
       fill="#ffffff"
       fill-opacity="0.4"
       d="M 257,256 H 768 V 0 h 1 v 256 h 255 v 1 H 769 v 511 h 255 v 1 H 769 v 255 h -1 V 769 H 257 v 255 h -1 V 769 H 0 v -1 H 256 V 257 H 0 v -1 H 256 V 0 h 1 v 256 m 511,1 H 257 V 768 H 768 V 257"
       id="path4"
       style="fill:#272b30" />
    <path
       stroke="none"
       fill="#ffffff"
       fill-opacity="0.4"
       d="m 513,511 h 511 v 2 h -20.1 v 0.05 h -1.05 -0.4 -0.45 L 513,513 v 511 h -2 V 1010.95 513 H 6.95 6.45 6.05 0 v -2 h 511 v -1.1 -0.35 -0.5 V 8.5 0 h 2 v 511"
       id="path5"
       style="fill:#272b30" />
    <path
       fill="none"
       stroke="#ffffff"
       stroke-width="0.05"
       stroke-linecap="butt"
       stroke-linejoin="miter"
       stroke-miterlimit="3"
       d="M 1023.85,0 768,255.95 m 255.95,256 -255.95,256 M 0.1,0 256,255.95 m -255.95,256 255.95,256"
       id="path6"
       style="fill:#272b30" />
    <path
       fill="none"
       stroke="#ffffff"
       stroke-width="0.05"
       stroke-linecap="round"
       stroke-linejoin="miter"
       stroke-miterlimit="3"
       d="M 256,767.95 0,1024 m 768,-768.05 255.95,256 M 768,767.95 1024,1024 M 256,255.95 511.85,0 M 256,255.95 0.05,511.95 M 512.1,0 768,255.95"
       id="path7"
       style="fill:#272b30" />
    <path
       fill="none"
       stroke="#ffffff"
       stroke-width="0.05"
       stroke-linecap="round"
       stroke-linejoin="miter"
       stroke-miterlimit="3"
       d="M 768,255.95 512.05,511.95 512,512 511.95,511.95 256,255.95 m 0,512 255.95,-256 M 256,767.95 512,1024 768,767.95 512.05,511.95"
       id="path8"
       style="fill:none" />
  </g>
</svg>
