<?xml version="1.0" encoding="UTF-8" standalone="no"?>
<svg
   version="1.1"
   id="svg4"
   width="1024"
   height="1024"
   xmlns="http://www.w3.org/2000/svg"
   xmlns:svg="http://www.w3.org/2000/svg">
  <defs
     id="defs1" />
  <g
     id="g4">
    <path
       stroke="none"
       fill="#333335"
       d="M 0,0 H 1024 V 1024 H 0 V 0"
       id="path1"
       style="fill:#ffffff" />
    <path
       stroke="none"
       fill="#ffffff"
       fill-opacity="0.101961"
       d="m 257,1024 h -1 V 897 H 129 v 127 h -1 V 897 H 0 v -1 H 128 V 769 H 0 v -1 H 128 V 641 H 0 v -1 H 128 V 513 H 0 v -1 H 128 V 385 H 0 v -1 H 128 V 257 H 0 v -1 H 128 V 129 H 0 v -1 H 128 V 0 h 1 V 128 H 256 V 0 h 1 V 128 H 384 V 0 h 1 V 128 H 512 V 0 h 1 V 128 H 640 V 0 h 1 V 128 H 768 V 0 h 1 V 128 H 896 V 0 h 1 v 128 h 127 v 1 H 897 v 127 h 127 v 1 H 897 v 127 h 127 v 1 H 897 v 127 h 127 v 1 H 897 v 127 h 127 v 1 H 897 v 127 h 127 v 1 H 897 v 127 h 127 v 1 H 897 v 127 h -1 V 897 H 769 v 127 h -1 V 897 H 641 v 127 h -1 V 897 H 513 v 127 h -1 V 897 H 385 v 127 h -1 V 897 H 257 v 127 M 768,257 H 641 V 384 H 768 V 257 m 1,0 V 384 H 896 V 257 H 769 m -1,-1 V 129 H 641 v 127 h 127 m 1,0 H 896 V 129 H 769 v 127 m 0,256 H 896 V 385 H 769 v 127 m -1,256 V 641 H 641 v 127 h 127 m 1,0 H 896 V 641 H 769 V 768 M 896,513 H 769 V 640 H 896 V 513 m -255,0 V 640 H 768 V 513 H 641 M 769,769 V 896 H 896 V 769 H 769 M 641,512 H 768 V 385 H 641 V 512 M 513,256 H 640 V 129 H 513 v 127 m -1,1 H 385 V 384 H 512 V 257 M 384,384 V 257 H 257 V 384 H 384 M 513,257 V 384 H 640 V 257 H 513 m 0,255 H 640 V 385 H 513 V 512 M 512,256 V 129 H 385 v 127 h 127 m 0,256 V 385 H 385 V 512 H 512 M 384,129 H 257 V 256 H 384 V 129 M 256,257 H 129 V 384 H 256 V 257 m 0,255 V 385 H 129 V 512 H 256 M 129,129 V 256 H 256 V 129 H 129 M 256,768 V 641 H 129 v 127 h 127 m 1,0 H 384 V 641 H 257 V 768 M 129,513 V 640 H 256 V 513 H 129 m 255,0 H 257 V 640 H 384 V 513 M 256,769 H 129 V 896 H 256 V 769 M 640,513 H 513 V 640 H 640 V 513 M 512,768 V 641 H 385 v 127 h 127 m 1,0 H 640 V 641 H 513 v 127 m 0,1 V 896 H 640 V 769 H 513 M 385,513 V 640 H 512 V 513 H 385 M 512,769 H 385 V 896 H 512 V 769 M 257,512 H 384 V 385 H 257 v 127 m 0,257 V 896 H 384 V 769 H 257 m 511,0 H 641 V 896 H 768 V 769"
       id="path2"
       style="fill:#272b30" />
    <path
       stroke="none"
       fill="#ffffff"
       d="M 1022,510 V 2 H 514 510 2 v 508 4 508 h 508 4 508 V 514.05 510 M 0,0 H 1024 V 1024 H 0 V 0"
       id="path3"
       style="fill:#272b30" />
    <path
       stroke="none"
       fill="#ffffff"
       fill-opacity="0.501961"
       d="m 1022,510 v 4.05 L 514,514 v 508 h -4 V 514 H 2 v -4 H 510 V 2 h 4 v 508 h 508"
       id="path4"
       style="fill:#272b30" />
  </g>
</svg>
