<?xml version="1.0" encoding="UTF-8" standalone="no"?>
<svg
   version="1.1"
   id="svg4"
   sodipodi:docname="plain_06.svg"
   width="1024"
   height="1024"
   inkscape:version="1.3-alpha (2a5ddc9, 2023-03-29)"
   xmlns:inkscape="http://www.inkscape.org/namespaces/inkscape"
   xmlns:sodipodi="http://sodipodi.sourceforge.net/DTD/sodipodi-0.dtd"
   xmlns="http://www.w3.org/2000/svg"
   xmlns:svg="http://www.w3.org/2000/svg">
  <sodipodi:namedview
     id="namedview4"
     pagecolor="#ffffff"
     bordercolor="#666666"
     borderopacity="1.0"
     inkscape:showpageshadow="2"
     inkscape:pageopacity="0.0"
     inkscape:pagecheckerboard="0"
     inkscape:deskcolor="#d1d1d1"
     inkscape:zoom="0.76485384"
     inkscape:cx="507.28647"
     inkscape:cy="572.00471"
     inkscape:window-width="1920"
     inkscape:window-height="1043"
     inkscape:window-x="1920"
     inkscape:window-y="0"
     inkscape:window-maximized="1"
     inkscape:current-layer="svg4" />
  <defs
     id="defs1" />
  <g
     id="g4">
    <path
       stroke="none"
       fill="#333335"
       d="M 0,0 H 1024 V 1024 H 0 V 0"
       id="path1"
       style="fill:#ffffff" />
    <path
       stroke="none"
       fill="#ffffff"
       fill-opacity="0.101961"
       d="m 257,1024 h -1 V 897 H 129 v 127 h -1 V 897 H 0 v -1 H 128 V 769 H 0 v -1 H 128 V 641 H 0 v -1 H 128 V 513 H 0 v -1 H 128 V 385 H 0 v -1 H 128 V 257 H 0 v -1 H 128 V 129 H 0 v -1 H 128 V 0 h 1 V 128 H 256 V 0 h 1 V 128 H 384 V 0 h 1 V 128 H 512 V 0 h 1 V 128 H 640 V 0 h 1 V 128 H 768 V 0 h 1 V 128 H 896 V 0 h 1 v 128 h 127 v 1 H 897 v 127 h 127 v 1 H 897 v 127 h 127 v 1 H 897 v 127 h 127 v 1 H 897 v 127 h 127 v 1 H 897 v 127 h 127 v 1 H 897 v 127 h 127 v 1 H 897 v 127 h -1 V 897 H 769 v 127 h -1 V 897 H 641 v 127 h -1 V 897 H 513 v 127 h -1 V 897 H 385 v 127 h -1 V 897 H 257 v 127 M 768,257 H 641 V 384 H 768 V 257 m 1,0 V 384 H 896 V 257 H 769 m -1,-1 V 129 H 641 v 127 h 127 m 1,0 H 896 V 129 H 769 v 127 m 0,256 H 896 V 385 H 769 v 127 m -1,256 V 641 H 641 v 127 h 127 m 1,0 H 896 V 641 H 769 V 768 M 896,513 H 769 V 640 H 896 V 513 m -255,0 V 640 H 768 V 513 H 641 M 769,769 V 896 H 896 V 769 H 769 M 641,512 H 768 V 385 H 641 V 512 M 513,256 H 640 V 129 H 513 v 127 m -1,1 H 385 V 384 H 512 V 257 M 384,384 V 257 H 257 V 384 H 384 M 513,257 V 384 H 640 V 257 H 513 m 0,255 H 640 V 385 H 513 V 512 M 512,256 V 129 H 385 v 127 h 127 m 0,256 V 385 H 385 V 512 H 512 M 384,129 H 257 V 256 H 384 V 129 M 256,257 H 129 V 384 H 256 V 257 m 0,255 V 385 H 129 V 512 H 256 M 129,129 V 256 H 256 V 129 H 129 M 256,768 V 641 H 129 v 127 h 127 m 1,0 H 384 V 641 H 257 V 768 M 129,513 V 640 H 256 V 513 H 129 m 255,0 H 257 V 640 H 384 V 513 M 256,769 H 129 V 896 H 256 V 769 M 640,513 H 513 V 640 H 640 V 513 M 512,768 V 641 H 385 v 127 h 127 m 1,0 H 640 V 641 H 513 v 127 m 0,1 V 896 H 640 V 769 H 513 M 385,513 V 640 H 512 V 513 H 385 M 512,769 H 385 V 896 H 512 V 769 M 257,512 H 384 V 385 H 257 v 127 m 0,257 V 896 H 384 V 769 H 257 m 511,0 H 641 V 896 H 768 V 769"
       id="path2"
       style="fill:#272b30" />
    <path
       stroke="none"
       fill="#ffffff"
       d="M 1023,1 H 1 V 1023 H 1023 V 1 M 0,0 H 1024 V 1024 H 0 V 0"
       id="path3"
       style="fill:#272b30" />
    <path
       stroke="none"
       fill="#ffffff"
       fill-opacity="0.4"
       d="m 768,158 h 1 q 0.4,0 0.7,0.3 l 0.3,0.7 v 96 h 96 q 0.4,0 0.7,0.3 l 0.3,0.7 v 1 l -0.3,0.7 -0.7,0.3 h -96 v 96 l -0.3,0.7 q -0.3,0.3 -0.7,0.3 h -1 l -0.7,-0.3 Q 767,354.4 767,354 v -96 h -96 l -0.7,-0.3 Q 670,257.4 670,257 v -1 q 0,-0.4 0.3,-0.7 0.3,-0.3 0.7,-0.3 h 96 v -96 q 0,-0.4 0.3,-0.7 0.3,-0.3 0.7,-0.3 m 0,512 h 1 q 0.4,0 0.7,0.3 l 0.3,0.7 v 96 h 96 q 0.4,0 0.7,0.3 l 0.3,0.7 v 1 l -0.3,0.7 -0.7,0.3 h -96 v 96 l -0.3,0.7 q -0.3,0.3 -0.7,0.3 h -1 l -0.7,-0.3 Q 767,866.4 767,866 v -96 h -96 l -0.7,-0.3 Q 670,769.4 670,769 v -1 q 0,-0.4 0.3,-0.7 0.3,-0.3 0.7,-0.3 h 96 v -96 q 0,-0.4 0.3,-0.7 0.3,-0.3 0.7,-0.3 M 355,256 v 1 l -0.3,0.7 q -0.3,0.3 -0.7,0.3 h -96 v 96 l -0.3,0.7 -0.7,0.3 h -1 l -0.7,-0.3 Q 255,354.4 255,354 v -96 h -96 l -0.7,-0.3 Q 158,257.4 158,257 v -1 q 0,-0.4 0.3,-0.7 0.3,-0.3 0.7,-0.3 h 96 v -96 q 0,-0.4 0.3,-0.7 0.3,-0.3 0.7,-0.3 h 1 q 0.4,0 0.7,0.3 l 0.3,0.7 v 96 h 96 q 0.4,0 0.7,0.3 L 355,256 M 158,769 v -1 q 0,-0.4 0.3,-0.7 0.3,-0.3 0.7,-0.3 h 96 v -96 q 0,-0.4 0.3,-0.7 0.3,-0.3 0.7,-0.3 h 1 q 0.4,0 0.7,0.3 l 0.3,0.7 v 96 h 96 q 0.4,0 0.7,0.3 l 0.3,0.7 v 1 l -0.3,0.7 q -0.3,0.3 -0.7,0.3 h -96 v 96 l -0.3,0.7 -0.7,0.3 h -1 l -0.7,-0.3 Q 255,866.4 255,866 v -96 h -96 l -0.7,-0.3 Q 158,769.4 158,769"
       id="path4"
       style="fill:#272b30" />
  </g>
</svg>
