<?xml version="1.0" encoding="UTF-8" standalone="no"?>
<svg
   version="1.1"
   id="svg7"
   width="1024"
   height="1024"
   xmlns="http://www.w3.org/2000/svg"
   xmlns:svg="http://www.w3.org/2000/svg">
  <defs
     id="defs1" />
  <path
     stroke="none"
     fill="#333335"
     d="M 0,0 H 1024 V 1024 H 0 V 0"
     id="path1"
     style="display:inline;fill:#ffffff" />
  <g
     id="g7">
    <path
       stroke="none"
       fill="#ffffff"
       d="m 162.35,96.35 q 2.55,0 4.2,1.1 1.7,1.05 2.5,3.05 0.8,2 0.65,4.7 h -12.9 q 0.4,2.35 1.9,3.7 1.5,1.3 3.85,1.35 l 2.7,-0.5 2.2,-1.5 1.3,1.4 q -1.15,1.25 -2.75,1.95 -1.65,0.65 -3.6,0.7 -2.35,-0.05 -4.15,-1.05 -1.75,-1 -2.75,-2.75 -1,-1.8 -1,-4.2 0,-2.35 1,-4.15 1,-1.8 2.75,-2.8 1.8,-1 4.1,-1 m 13.75,0.05 v 3.5 q 0.8,-1.75 2.2,-2.65 1.45,-0.9 3.45,-0.95 v 2.4 q -2.5,-0.05 -4,1.35 -1.45,1.4 -1.65,3.75 v 8.4 h -2.35 V 96.4 h 2.35 m 16.5,36.75 v -3.65 h 4.5 v 3.65 h 2.4 v 4.05 h -2.4 v 5 h -4.5 v -5 h -8.4 v -3.6 l 7.45,-12.4 h 5.1 l -7.1,11.95 h 2.95 M 156.8,103.3 h 10.8 q -0.1,-2.3 -1.5,-3.6 -1.4,-1.35 -3.75,-1.35 -2.3,0 -3.75,1.35 -1.5,1.3 -1.8,3.6 m 16.2,29.1 2.65,-3 q 0.8,-1.1 0.8,-2.15 0,-1.1 -0.7,-1.8 -0.7,-0.7 -1.75,-0.7 -2,0 -3.75,2.85 l -3.75,-2.25 q 1.45,-2.25 3.2,-3.4 1.75,-1.2 4.5,-1.2 2.7,0 4.75,1.7 2.05,1.75 2.05,4.7 0,1.65 -0.85,3.15 -0.8,1.45 -3,3.75 l -3.8,3.95 h 8.25 v 4.2 h -14.75 v -3.5 L 173,132.4 M 58.35,61 h -6.4 L 48.6,47.6 45.15,61 h -6.4 L 31.9,39.95 h 6.7 l 3.55,14.6 3.55,-14.55 6.1,-0.05 3.55,14.6 3.55,-14.6 h 6.35 L 58.35,61 m 21,-3.35 h -8.5 L 69.6,61 h -6.45 l 9,-21.05 h 6.4 L 87.2,61 h -6.65 l -1.2,-3.35 m 72.8,51.6 0.65,1.85 -1.75,0.9 -1.8,0.3 q -1.8,0.05 -2.9,-1.05 -1.1,-1.1 -1.15,-3.45 v -9 h -2.25 v -1.9 h 2.25 v -4.15 h 2.35 v 4.15 h 5 v 1.9 h -5 v 8.6 q 0,1.4 0.5,2.05 0.55,0.6 1.55,0.6 1.25,0 2.55,-0.8 m -18.9,-12.9 q 2.55,0 4.2,1.1 1.7,1.05 2.5,3.05 0.8,2 0.65,4.7 h -12.9 q 0.4,2.35 1.9,3.7 1.5,1.3 3.85,1.35 l 2.7,-0.5 2.2,-1.5 1.3,1.4 q -1.15,1.25 -2.75,1.95 -1.65,0.65 -3.6,0.7 -2.35,-0.05 -4.15,-1.05 -1.75,-1 -2.75,-2.75 -1,-1.8 -1,-4.2 0,-2.35 1,-4.15 1,-1.8 2.75,-2.8 1.8,-1 4.1,-1 m -17.3,-0.05 q 2.8,0.05 4.3,1.65 1.55,1.6 1.55,4.5 v 9.75 h -2.3 v -9.1 q -0.05,-2.15 -1.2,-3.3 -1.15,-1.15 -3.2,-1.2 -1.65,0.1 -2.8,0.8 -1.15,0.75 -1.75,2.05 -0.6,1.25 -0.6,3 v 7.75 h -2.4 v -9.1 q 0,-2.15 -1.15,-3.3 -1.15,-1.15 -3.2,-1.2 -1.65,0.1 -2.8,0.8 -1.15,0.75 -1.75,2.05 -0.65,1.25 -0.65,3 v 7.75 H 95.7 V 96.4 H 98 v 3.55 q 0.8,-1.85 2.35,-2.7 1.55,-0.95 3.7,-0.95 2.2,0 3.7,1.1 1.45,1.05 1.95,3.05 0.75,-2.1 2.35,-3.1 1.6,-1.05 3.9,-1.05 M 95,55.8 h 8.85 V 61 H 88.75 V 39.95 H 95 V 55.8 m 17.2,0 h 8.85 V 61 h -15.1 V 39.95 h 6.25 V 55.8 M 32.9,91.2 h 8.5 v 21 h -4.5 v -17 h -4 v -4 M 77.7,53.1 75.15,46.2 72.6,53.1 h 5.1 m -17.55,45.55 4.75,-4.85 2.6,2.65 -4.7,4.85 4.75,4.85 -2.6,2.7 -4.8,-4.9 -4.75,4.9 -2.65,-2.7 4.8,-4.85 -4.8,-4.85 2.65,-2.65 4.75,4.85 m 14.3,-7.45 h 8.5 v 21 h -4.5 v -17 h -4 v -4 m -1.1,41.2 2.65,-3 q 0.8,-1.1 0.8,-2.15 0,-1.1 -0.7,-1.8 -0.7,-0.7 -1.75,-0.7 -2,0 -3.75,2.85 l -3.75,-2.25 q 1.45,-2.25 3.2,-3.4 1.75,-1.2 4.5,-1.2 2.7,0 4.75,1.7 2.05,1.75 2.05,4.7 0,1.65 -0.85,3.15 -0.8,1.45 -3,3.75 L 73.7,138 h 8.25 v 4.2 H 67.2 v -3.5 l 6.15,-6.3 M 54.7,142.45 q -4.35,0 -6.5,-2.95 -2.15,-2.95 -2.15,-7.9 0,-4.95 2.15,-7.9 2.15,-2.95 6.5,-2.95 4.35,0 6.5,2.95 2.15,2.95 2.15,7.9 0,4.95 -2.15,7.9 -2.15,2.95 -6.5,2.95 m -3.1,-15.9 q -1,1.9 -1,5.05 0,3.15 1,5.1 1,1.9 3.1,1.9 2.1,0 3.1,-1.9 1,-1.95 1,-5.1 0,-3.15 -1,-5.05 -1,-1.95 -3.1,-1.95 -2.1,0 -3.1,1.95 M 32.9,121.2 h 8.5 v 21 h -4.5 v -17 h -4 v -4 m 121.45,21.25 q -4.35,0 -6.5,-2.95 -2.15,-2.95 -2.15,-7.9 0,-4.95 2.15,-7.9 2.15,-2.95 6.5,-2.95 4.35,0 6.5,2.95 2.15,2.95 2.15,7.9 0,4.95 -2.15,7.9 -2.15,2.95 -6.5,2.95 M 127.7,103.3 h 10.8 q -0.1,-2.3 -1.5,-3.6 -1.4,-1.35 -3.75,-1.35 -2.3,0 -3.75,1.35 -1.5,1.3 -1.8,3.6 m 4.85,17.9 h 8.5 v 21 h -4.5 v -17 h -4 v -4 m -14.3,7.45 4.75,-4.85 2.6,2.65 -4.7,4.85 4.75,4.85 -2.6,2.7 -4.8,-4.9 -4.75,4.9 -2.65,-2.7 4.8,-4.85 -4.8,-4.85 2.65,-2.65 4.75,4.85 m 33,-2.1 q -1,1.9 -1,5.05 0,3.15 1,5.1 1,1.9 3.1,1.9 2.1,0 3.1,-1.9 1,-1.95 1,-5.1 0,-3.15 -1,-5.05 -1,-1.95 -3.1,-1.95 -2.1,0 -3.1,1.95 m -58.3,6.6 v -3.65 h 4.5 v 3.65 h 2.4 v 4.05 h -2.4 v 5 h -4.5 v -5 h -8.4 v -3.6 L 92,121.2 h 5.1 L 90,133.15 h 2.95"
       id="path6"
       style="display:inline;fill:#272b30" />
    <path
       stroke="none"
       fill="#ffffff"
       d="M 1023,1 H 513 v 510 h 510 V 1 M 1,1 V 511 H 511 V 1 H 1 M 1,1023 H 511 V 513 H 1 v 510 M 0,0 H 1024 V 1024 H 0 V 0 M 1023,1023 V 513.05 L 513,513 v 510 h 510"
       id="path2"
       style="fill:#272b30" />
    <path
       stroke="none"
       fill="#ffffff"
       fill-opacity="0.2"
       d="m 257,1024 h -1 V 769 H 0 v -1 H 256 V 257 H 0 v -1 H 256 V 0 h 1 V 256 H 768 V 0 h 1 v 256 h 255 v 1 H 769 v 511 h 255 v 1 H 769 v 255 h -1 V 769 H 257 v 255 m 0,-256 H 768 V 257 H 257 v 511"
       id="path3"
       style="fill:#272b30" />
    <path
       stroke="none"
       fill="#ffffff"
       fill-opacity="0.101961"
       d="m 896,0 h 1 v 1024 h -1 V 0 M 640,0 h 1 v 1024 h -1 V 0 M 384,0 h 1 v 1024 h -1 V 0 M 128,0 h 1 v 1024 h -1 V 0"
       id="path4"
       style="fill:#272b30" />
    <path
       stroke="none"
       fill="#ffffff"
       fill-opacity="0.101961"
       d="m 1024,128 v 1 H 0 v -1 h 1024 m 0,256 v 1 H 0 v -1 h 1024 m 0,256 v 1 H 0 v -1 h 1024 m 0,256 v 1 H 0 v -1 h 1024"
       id="path5"
       style="fill:#272b30" />
    <path
       fill="none"
       stroke="#ffffff"
       stroke-width="2"
       stroke-linecap="butt"
       stroke-linejoin="miter"
       stroke-miterlimit="3"
       d="M 32,76 H 200"
       id="path7"
       style="fill:#272b30" />
  </g>
</svg>
