<?xml version="1.0" encoding="UTF-8" standalone="no"?>
<svg
   version="1.1"
   id="svg8"
   sodipodi:docname="window.svg"
   width="1024"
   height="1024"
   inkscape:version="1.3-alpha (2a5ddc9, 2023-03-29)"
   xmlns:inkscape="http://www.inkscape.org/namespaces/inkscape"
   xmlns:sodipodi="http://sodipodi.sourceforge.net/DTD/sodipodi-0.dtd"
   xmlns="http://www.w3.org/2000/svg"
   xmlns:svg="http://www.w3.org/2000/svg">
  <sodipodi:namedview
     id="namedview8"
     pagecolor="#ffffff"
     bordercolor="#666666"
     borderopacity="1.0"
     inkscape:showpageshadow="2"
     inkscape:pageopacity="0.0"
     inkscape:pagecheckerboard="0"
     inkscape:deskcolor="#d1d1d1"
     inkscape:zoom="0.54083333"
     inkscape:cx="440.06163"
     inkscape:cy="398.45917"
     inkscape:window-width="1920"
     inkscape:window-height="1043"
     inkscape:window-x="1920"
     inkscape:window-y="0"
     inkscape:window-maximized="1"
     inkscape:current-layer="svg8" />
  <defs
     id="defs1" />
  <g
     id="g8">
    <path
       stroke="none"
       fill="#333335"
       d="M 0,0 H 1024 V 1024 H 0 V 0"
       id="path1"
       style="fill:#ffffff" />
    <path
       stroke="none"
       fill="#1e1e1e"
       fill-opacity="0.501961"
       d="M 256,256 V 768 H 768 V 256 H 256 M 0,0 H 1024 V 1024 H 0 V 0"
       id="path2"
       style="fill:#272b30" />
    <path
       fill="none"
       stroke="#ffffff"
       stroke-width="4"
       stroke-linecap="butt"
       stroke-linejoin="miter"
       stroke-miterlimit="3"
       d="M 296,296 H 728 V 728 H 296 V 296 M 256,256 H 768 V 768 H 256 V 256"
       id="path3"
       style="stroke:#272b30" />
    <path
       stroke="none"
       fill="#ffffff"
       fill-opacity="0.101961"
       d="m 1022,128 v 1 H 897 v 127 h 125 v 1 H 897 v 127 h 125 v 1 H 897 v 125 h -1 V 385 H 769 v 125 h -1 V 385 H 641 v 125 h -1 V 385 H 514 v -1 H 640 V 257 H 514 v -1 H 640 V 129 H 514 v -1 H 640 V 2 h 1 V 128 H 768 V 2 h 1 V 128 H 896 V 2 h 1 v 126 h 125 M 768,257 H 641 V 384 H 768 V 257 m 1,0 V 384 H 896 V 257 H 769 m -1,-1 V 129 H 641 v 127 h 127 m 1,0 H 896 V 129 H 769 v 127 m 127,258.05 h 1 V 640 h 125 v 1 H 897 v 127 h 125 v 1 H 897 v 127 h 125 v 1 H 897 v 125 h -1 V 897 H 769 v 125 h -1 V 897 H 641 v 125 h -1 V 897 H 514 v -1 H 640 V 769 H 514 v -1 H 640 V 641 H 514 v -1 H 640 V 514.05 h 1 V 640 H 768 V 514.05 h 1 V 640 H 896 V 514.05 M 768,768 V 641 H 641 v 127 h 127 m 1,0 H 896 V 641 H 769 v 127 m 0,1 V 896 H 896 V 769 H 769 M 510,128 v 1 H 385 v 127 h 125 v 1 H 385 v 127 h 125 v 1 H 385 v 125 h -1 V 385 H 257 v 125 h -1 V 385 H 129 v 125 h -1 V 385 H 2 v -1 H 128 V 257 H 2 v -1 H 128 V 129 H 2 v -1 H 128 V 2 h 1 V 128 H 256 V 2 h 1 V 128 H 384 V 2 h 1 V 128 H 510 M 384,384 V 257 H 257 v 127 h 127 m 0,-255 H 257 V 256 H 384 V 129 M 256,257 H 129 V 384 H 256 V 257 M 129,129 V 256 H 256 V 129 H 129 m 127,385 h 1 V 640 H 384 V 514 h 1 v 126 h 125 v 1 H 385 v 127 h 125 v 1 H 385 v 127 h 125 v 1 H 385 v 125 h -1 V 897 H 257 v 125 h -1 V 897 H 129 v 125 h -1 V 897 H 2 v -1 H 128 V 769 H 2 v -1 H 128 V 641 H 2 v -1 H 128 V 514 h 1 V 640 H 256 V 514 m 0,254 V 641 H 129 v 127 h 127 m 1,0 H 384 V 641 H 257 v 127 m -1,1 H 129 V 896 H 256 V 769 m 1,0 V 896 H 384 V 769 H 257 m 511,0 H 641 V 896 H 768 V 769"
       id="path4"
       style="fill:#272b30" />
    <path
       stroke="none"
       fill="#ffffff"
       d="M 1022,129 V 128 2 H 897 896 769 768 641 640 514 510 385 384 257 256 129 128 2 v 126 1 127 1 127 1 125 4 126 1 127 1 127 1 125 h 126 1 127 1 127 1 125 4 126 1 127 1 127 1 125 V 897 896 769 768 641 640 514.05 510 385 384 257 256 129 M 0,0 H 1024 V 1024 H 0 V 0"
       id="path5"
       style="fill:#272b30" />
    <path
       stroke="none"
       fill="#ffffff"
       fill-opacity="0.501961"
       d="m 514,128 v 1 127 1 127 1 125 h 126 1 127 1 127 1 125 v 4.05 H 897 896 769 768 641 640 L 514,514 v 126 1 127 1 127 1 125 h -4 V 897 896 769 768 641 640 514 H 385 384 257 256 129 128 2 v -4 h 126 1 127 1 127 1 125 V 385 384 257 256 129 128 2 h 4 v 126"
       id="path6"
       style="fill:#272b30" />
    <path
       stroke="none"
       fill="#ffffff"
       d="m 171.1,61 h -6.4 L 161.35,47.6 157.9,61 h -6.4 l -6.85,-21.05 h 6.7 l 3.55,14.6 3.55,-14.55 6.1,-0.05 3.55,14.6 3.55,-14.6 H 178 L 171.1,61 m 1.9,41.4 2.65,-3 q 0.8,-1.1 0.8,-2.15 0,-1.1 -0.7,-1.8 -0.7,-0.7 -1.75,-0.7 -2,0 -3.75,2.85 l -3.75,-2.25 q 1.45,-2.25 3.2,-3.4 1.75,-1.2 4.5,-1.2 2.7,0 4.75,1.7 2.05,1.75 2.05,4.7 0,1.65 -0.85,3.15 -0.8,1.45 -3,3.75 l -3.8,3.95 h 8.25 v 4.2 h -14.75 v -3.5 l 6.15,-6.3 m 19.6,0.75 V 99.5 h 4.5 v 3.65 h 2.4 v 4.05 h -2.4 v 5 h -4.5 v -5 h -8.4 v -3.6 l 7.45,-12.4 h 5.1 l -7.1,11.95 h 2.95 M 96.55,61 h -5.3 L 82.35,49.3 V 61 H 76.6 V 39.95 h 5.35 l 8.95,11.8 v -11.8 h 5.65 V 61 m 3.55,-21.05 h 9.25 q 3.4,0.05 5.95,1.35 2.55,1.25 3.9,3.65 1.45,2.35 1.45,5.5 0,3.2 -1.45,5.55 -1.45,2.4 -4,3.7 -2.6,1.3 -6.05,1.3 H 100.1 V 39.95 m 6.25,4.95 v 11.2 h 3.15 q 2.2,0 3.45,-1.5 1.3,-1.5 1.35,-4.05 -0.05,-2.6 -1.4,-4.1 -1.4,-1.55 -3.7,-1.55 h -2.85 M 133.1,45 q -1.4,0 -2.55,0.7 -1.15,0.7 -1.85,1.95 -0.75,1.25 -0.75,2.85 0,1.6 0.75,2.85 0.7,1.25 1.85,2 1.15,0.7 2.55,0.7 1.4,0 2.55,-0.7 1.1,-0.75 1.75,-2 0.7,-1.25 0.7,-2.85 0,-1.6 -0.7,-2.85 Q 136.75,46.4 135.65,45.7 134.5,45 133.1,45 m -0.05,-5.2 q 3.3,0 5.9,1.4 2.55,1.35 4,3.75 1.5,2.4 1.55,5.5 -0.05,3.15 -1.55,5.55 -1.45,2.45 -4,3.85 -2.6,1.4 -5.9,1.45 -3.35,-0.05 -5.95,-1.45 -2.55,-1.4 -4,-3.8 -1.5,-2.45 -1.55,-5.6 0.05,-3.1 1.55,-5.5 1.45,-2.4 4,-3.75 2.6,-1.4 5.95,-1.4 m -40.1,63.35 V 99.5 h 4.5 v 3.65 h 2.4 v 4.05 h -2.4 v 5 h -4.5 v -5 h -8.4 v -3.6 L 92,91.2 h 5.1 L 90,103.15 h 2.95 m 25.3,-4.5 4.75,-4.85 2.6,2.65 -4.7,4.85 4.75,4.85 -2.6,2.7 -4.8,-4.9 -4.75,4.9 -2.65,-2.7 4.8,-4.85 -4.8,-4.85 2.65,-2.65 4.75,4.85 m 14.3,-7.45 h 8.5 v 21 h -4.5 v -17 h -4 v -4 m 18.7,5.35 q -1,1.9 -1,5.05 0,3.15 1,5.1 1,1.9 3.1,1.9 2.1,0 3.1,-1.9 1,-1.95 1,-5.1 0,-3.15 -1,-5.05 -1,-1.95 -3.1,-1.95 -2.1,0 -3.1,1.95 m 3.1,15.9 q -4.35,0 -6.5,-2.95 -2.15,-2.95 -2.15,-7.9 0,-4.95 2.15,-7.9 2.15,-2.95 6.5,-2.95 4.35,0 6.5,2.95 2.15,2.95 2.15,7.9 0,4.95 -2.15,7.9 -2.15,2.95 -6.5,2.95 M 58.35,61 h -6.4 L 48.6,47.6 45.15,61 h -6.4 L 31.9,39.95 h 6.7 l 3.55,14.6 3.55,-14.55 6.1,-0.05 3.55,14.6 3.55,-14.6 h 6.35 L 58.35,61 M 73.1,61 H 66.85 V 39.95 H 73.1 V 61 M 32.9,91.2 h 8.5 v 21 h -4.5 v -17 h -4 v -4 m 18.7,5.35 q -1,1.9 -1,5.05 0,3.15 1,5.1 1,1.9 3.1,1.9 2.1,0 3.1,-1.9 1,-1.95 1,-5.1 0,-3.15 -1,-5.05 -1,-1.95 -3.1,-1.95 -2.1,0 -3.1,1.95 m 3.1,15.9 q -4.35,0 -6.5,-2.95 -2.15,-2.95 -2.15,-7.9 0,-4.95 2.15,-7.9 2.15,-2.95 6.5,-2.95 4.35,0 6.5,2.95 2.15,2.95 2.15,7.9 0,4.95 -2.15,7.9 -2.15,2.95 -6.5,2.95 M 73.35,102.4 76,99.4 q 0.8,-1.1 0.8,-2.15 0,-1.1 -0.7,-1.8 -0.7,-0.7 -1.75,-0.7 -2,0 -3.75,2.85 l -3.75,-2.25 q 1.45,-2.25 3.2,-3.4 1.75,-1.2 4.5,-1.2 2.7,0 4.75,1.7 2.05,1.75 2.05,4.7 0,1.65 -0.85,3.15 -0.8,1.45 -3,3.75 L 73.7,108 h 8.25 v 4.2 H 67.2 v -3.5 l 6.15,-6.3"
       id="path7"
       style="fill:#272b30" />
    <path
       fill="none"
       stroke="#ffffff"
       stroke-width="2"
       stroke-linecap="butt"
       stroke-linejoin="miter"
       stroke-miterlimit="3"
       d="M 32,76 H 200"
       id="path8"
       style="stroke:#272b30" />
  </g>
</svg>
